<svg xmlns="http://www.w3.org/2000/svg" width="1400" height="360" viewBox="0 0 1400 360" role="img" aria-labelledby="title desc">
  <title id="title">TensorGuard</title>
  <desc id="desc">基于大语言模型的深度学习框架智能模糊测试与缺陷验证平台</desc>
  <defs>
    <linearGradient id="heroBg" x1="0" y1="0" x2="1" y2="1">
      <stop offset="0" stop-color="#f7faff"/>
      <stop offset="0.58" stop-color="#eef4ff"/>
      <stop offset="1" stop-color="#f5f1ff"/>
    </linearGradient>
    <linearGradient id="brand" x1="0" y1="0" x2="1" y2="1">
      <stop offset="0" stop-color="#2563eb"/>
      <stop offset="1" stop-color="#6047d7"/>
    </linearGradient>
    <filter id="shadow" x="-20%" y="-20%" width="140%" height="140%">
      <feDropShadow dx="0" dy="10" stdDeviation="14" flood-color="#274776" flood-opacity="0.13"/>
    </filter>
    <style>
      .ui { font-family: Inter, "Noto Sans SC", "Microsoft YaHei", Arial, sans-serif; }
      .mono { font-family: "SFMono-Regular", Consolas, "Liberation Mono", monospace; }
    </style>
  </defs>

  <rect x="1" y="1" width="1398" height="358" rx="28" fill="url(#heroBg)" stroke="#d9e4f5" stroke-width="2"/>
  <path d="M0 278 C270 225 470 342 730 285 C990 229 1138 255 1400 196 L1400 360 L0 360 Z" fill="#ffffff" opacity="0.64"/>

  <g transform="translate(70 68)" filter="url(#shadow)">
    <path d="M74 0 L140 25 V89 C140 139 112 180 74 202 C36 180 8 139 8 89 V25 Z" fill="url(#brand)"/>
    <path d="M74 22 L119 39 V88 C119 122 101 151 74 169 C47 151 29 122 29 88 V39 Z" fill="none" stroke="#ffffff" stroke-width="5" opacity="0.95"/>
    <path d="M48 68 H100 M74 68 V128 M50 128 H98" fill="none" stroke="#ffffff" stroke-width="10" stroke-linecap="round"/>
  </g>

  <g class="ui" transform="translate(250 75)">
    <text x="0" y="52" font-size="54" font-weight="800" fill="#14213d" letter-spacing="0">TensorGuard</text>
    <text x="2" y="93" font-size="22" font-weight="600" fill="#315b9d">深度学习框架智能模糊测试与缺陷验证平台</text>
    <text x="2" y="131" font-size="17" fill="#61708c">LLM-guided framework fuzzing · differential oracle · reproducible evidence</text>

    <g transform="translate(0 160)">
      <rect x="0" y="0" width="150" height="64" rx="13" fill="#ffffff" stroke="#cfdef7"/>
      <text x="18" y="25" font-size="13" font-weight="700" fill="#6b7a94">API COVERAGE</text>
      <text x="18" y="50" font-size="25" font-weight="800" fill="#2563eb">4,608</text>

      <rect x="164" y="0" width="150" height="64" rx="13" fill="#ffffff" stroke="#d8d1f7"/>
      <text x="182" y="25" font-size="13" font-weight="700" fill="#6b7a94">FRAMEWORKS</text>
      <text x="182" y="50" font-size="25" font-weight="800" fill="#6548d8">2</text>

      <rect x="328" y="0" width="178" height="64" rx="13" fill="#ffffff" stroke="#cbe9df"/>
      <text x="346" y="25" font-size="13" font-weight="700" fill="#6b7a94">REPRO EVIDENCE</text>
      <text x="346" y="50" font-size="25" font-weight="800" fill="#148265">14</text>
    </g>
  </g>

  <g class="ui" transform="translate(870 58)">
    <rect x="0" y="0" width="470" height="244" rx="22" fill="#ffffff" stroke="#d7e2f3" filter="url(#shadow)"/>
    <text x="28" y="37" font-size="14" font-weight="800" fill="#315b9d">AUTOMATED TESTING LOOP</text>

    <g transform="translate(28 58)">
      <rect x="0" y="0" width="84" height="78" rx="14" fill="#edf4ff" stroke="#a8c7ff"/>
      <rect x="15" y="14" width="30" height="30" rx="8" fill="#2563eb"/>
      <text x="30" y="35" text-anchor="middle" font-size="13" font-weight="800" fill="#ffffff">API</text>
      <text x="15" y="61" font-size="14" font-weight="700" fill="#24416f">约束</text>

      <path d="M91 39 H103" stroke="#819bc7" stroke-width="3" stroke-linecap="round"/>
      <path d="M98 33 L105 39 L98 45" fill="none" stroke="#819bc7" stroke-width="3" stroke-linecap="round"/>

      <rect x="110" y="0" width="84" height="78" rx="14" fill="#f4f0ff" stroke="#c6b7f5"/>
      <rect x="125" y="14" width="30" height="30" rx="8" fill="#6748d8"/>
      <text x="140" y="35" text-anchor="middle" font-size="12" font-weight="800" fill="#ffffff">LLM</text>
      <text x="125" y="61" font-size="14" font-weight="700" fill="#4f398f">生成</text>

      <path d="M201 39 H213" stroke="#819bc7" stroke-width="3" stroke-linecap="round"/>
      <path d="M208 33 L215 39 L208 45" fill="none" stroke="#819bc7" stroke-width="3" stroke-linecap="round"/>

      <rect x="220" y="0" width="84" height="78" rx="14" fill="#eaf9f7" stroke="#9cded5"/>
      <rect x="235" y="14" width="30" height="30" rx="8" fill="#0b9297"/>
      <text x="250" y="35" text-anchor="middle" font-size="13" font-weight="800" fill="#ffffff">FX</text>
      <text x="235" y="61" font-size="14" font-weight="700" fill="#17666d">变异</text>

      <path d="M311 39 H323" stroke="#819bc7" stroke-width="3" stroke-linecap="round"/>
      <path d="M318 33 L325 39 L318 45" fill="none" stroke="#819bc7" stroke-width="3" stroke-linecap="round"/>

      <rect x="330" y="0" width="84" height="78" rx="14" fill="#fff3e5" stroke="#efc27f"/>
      <rect x="345" y="14" width="30" height="30" rx="8" fill="#d58a23"/>
      <text x="360" y="35" text-anchor="middle" font-size="13" font-weight="900" fill="#ffffff">Δ</text>
      <text x="345" y="61" font-size="14" font-weight="700" fill="#8e5a18">检测</text>
    </g>

    <g transform="translate(28 158)">
      <rect x="0" y="0" width="414" height="55" rx="13" fill="#162642"/>
      <circle cx="28" cy="27" r="10" fill="#33b889"/>
      <text x="49" y="23" font-size="13" font-weight="700" fill="#ffffff">候选聚类 · 独立复现 · 证据归档</text>
      <text x="49" y="41" font-size="12" fill="#aebed7">从高噪声异常到可再次验证的缺陷证据</text>
      <path d="M370 27 H392" stroke="#70ddba" stroke-width="3"/>
      <path d="M386 20 L394 27 L386 34" fill="none" stroke="#70ddba" stroke-width="3" stroke-linecap="round"/>
    </g>
  </g>
</svg>
